<svg width="65" height="65" viewBox="0 0 65 65" fill="none" xmlns="http://www.w3.org/2000/svg">
<path d="M41.4502 18.4844V24.8066H37.248V29.0088H30.9258V24.8066H26.7236V18.4844H30.9258V14.2822H37.248V18.4844H41.4502Z" fill="black"/>
<path d="M41.4502 18.4844V24.8066H37.248V29.0088H30.9258V24.8066H26.7236V18.4844H30.9258V14.2822H37.248V18.4844H41.4502Z" fill="#DA7321"/>
<path d="M49.8926 30.9893C51.5176 28.2471 52.4444 25.0605 52.4444 21.6455C52.4444 11.502 44.2178 3.28809 34.0869 3.28809C23.9434 3.28809 15.7295 11.5146 15.7295 21.6455C15.7295 21.6836 15.7295 21.7344 15.7295 21.7725V25.2637L12.7334 29.5547C12.3018 30.1641 12.67 31.0146 13.3936 31.1289L15.7168 31.5098L16.9991 42.7324C17.126 43.8496 17.9258 44.7637 19.0176 45.0557C20.9727 45.5762 24.4766 46.2617 29.3008 46.2617C29.3008 46.2617 29.9864 58.4619 26.7364 61.7119H32.7539V54.1201C32.7539 53.625 33.1475 53.2314 33.6426 53.2314C34.1377 53.2314 34.5313 53.625 34.5313 54.1201V61.7119H49.6641C49.6641 61.7119 48.1787 57.5479 46.9346 53.2568C45.6397 48.7881 45.4873 44.0654 46.4903 39.5078C47.1377 36.499 48.3184 33.6426 49.8926 30.9893ZM34.5186 51.0986C34.5059 51.1494 34.4932 51.2129 34.4678 51.2637C34.4424 51.3145 34.417 51.3652 34.3916 51.416C34.3535 51.4668 34.3282 51.5049 34.2774 51.5557C34.1123 51.7207 33.8838 51.8096 33.6426 51.8096C33.5791 51.8096 33.5283 51.8096 33.4649 51.7969C33.4141 51.7842 33.3506 51.7715 33.2998 51.7461C33.249 51.7207 33.1983 51.6953 33.1475 51.6699C33.0967 51.6318 33.0586 51.5938 33.0078 51.5557C32.9698 51.5176 32.9317 51.4668 32.8936 51.416C32.8555 51.3652 32.8301 51.3145 32.8174 51.2637C32.792 51.2129 32.7793 51.1494 32.7666 51.0986C32.7539 51.0479 32.7539 50.9844 32.7539 50.9209C32.7539 50.8574 32.7539 50.8066 32.7666 50.7432C32.7793 50.6924 32.792 50.6289 32.8174 50.5781C32.8428 50.5273 32.8682 50.4766 32.8936 50.4258C32.9317 50.375 32.9571 50.3369 33.0078 50.2861C33.0459 50.248 33.0967 50.21 33.1475 50.1719C33.1983 50.1338 33.249 50.1084 33.2998 50.083C33.3506 50.0576 33.4141 50.0449 33.4649 50.0322C33.7569 49.9814 34.0616 50.0703 34.2647 50.2734C34.4297 50.4385 34.5186 50.667 34.5186 50.8955C34.5313 50.9844 34.5186 51.0479 34.5186 51.0986ZM42.3389 31.3574C40.1172 33.249 37.2354 34.3916 34.0869 34.3916C27.0918 34.3916 21.4043 28.7549 21.3409 21.7725C21.3409 21.7344 21.3409 21.6836 21.3409 21.6455C21.3282 14.5996 27.041 8.88672 34.0869 8.88672C41.1328 8.88672 46.8457 14.5996 46.8457 21.6455C46.8457 25.5303 45.0938 29.0215 42.3389 31.3574Z" fill="black"/>
</svg>
